<?xml version="1.0" encoding="UTF-8"?>
<!-- Generated by Pixelmator Pro 4.2 -->
<svg width="36" height="36" viewBox="0 0 36 36" xmlns="http://www.w3.org/2000/svg">
    <path id="Path" fill="#ffffff" stroke="none" d="M 3.5 13.5 C 3.5 12.257 4.507 11.25 5.75 11.25 L 9.5 11.25 L 15.25 4.799999 C 16.226999 3.984001 17.75 4.679001 17.75 5.952 L 17.75 30.048 C 17.75 31.320999 16.226999 32.015999 15.25 31.200001 L 9.5 24.75 L 5.75 24.75 C 4.507 24.75 3.5 23.743 3.5 22.5 L 3.5 13.5 Z"/>
    <path id="path1" fill="#ffffff" stroke="#ffffff" stroke-width="2.25" stroke-linecap="round" d="M 22 7 L 22 29"/>
    <path id="path2" fill="#ffffff" stroke="#ffffff" stroke-width="2.25" stroke-linecap="round" d="M 27.5 4.5 L 27.5 31.5"/>
    <path id="path3" fill="#ffffff" stroke="#ffffff" stroke-width="2.25" stroke-linecap="round" d="M 33 8.5 L 33 27.5"/>
    <path id="path4" fill="#ffffff" stroke="none" d="M 21.5 10.5 L 22.5 10.5 C 23.60457 10.5 24.5 11.395432 24.5 12.5 L 24.5 12.5 C 24.5 13.604568 23.60457 14.5 22.5 14.5 L 21.5 14.5 C 20.39543 14.5 19.5 13.604568 19.5 12.5 L 19.5 12.5 C 19.5 11.395432 20.39543 10.5 21.5 10.5 Z"/>
    <path id="path5" fill="#ffffff" stroke="none" d="M 27 18.5 L 28 18.5 C 29.10457 18.5 30 19.39543 30 20.5 L 30 20.5 C 30 21.60457 29.10457 22.5 28 22.5 L 27 22.5 C 25.89543 22.5 25 21.60457 25 20.5 L 25 20.5 C 25 19.39543 25.89543 18.5 27 18.5 Z"/>
    <path id="path6" fill="#ffffff" stroke="none" d="M 32.5 14.5 L 33.5 14.5 C 34.604568 14.5 35.5 15.395432 35.5 16.5 L 35.5 16.5 C 35.5 17.60457 34.604568 18.5 33.5 18.5 L 32.5 18.5 C 31.39543 18.5 30.5 17.60457 30.5 16.5 L 30.5 16.5 C 30.5 15.395432 31.39543 14.5 32.5 14.5 Z"/>
</svg>
